PathFileType	4	(X/Y/Z)	distal_points_all_segments.trc
DataRate	CameraRate	NumFrames	NumMarkers	Units	OrigDataRate	OrigDataStartFrame	OrigNumFrames
60.0	60.0	32	18	m	60.0	254	290
Frame#	Time	worldbody			l_thigh			l_shank			l_foot			l_toes			r_thigh			r_shank			r_foot			r_toes			head			torso			l_uarm			l_larm			l_hand			r_uarm			r_larm			r_hand			pelvis_shifted		
		X1	Y1	Z1	X2	Y2	Z2	X3	Y3	Z3	X4	Y4	Z4	X5	Y5	Z5	X6	Y6	Z6	X7	Y7	Z7	X8	Y8	Z8	X9	Y9	Z9	X10	Y10	Z10	X11	Y11	Z11	X12	Y12	Z12	X13	Y13	Z13	X14	Y14	Z14	X15	Y15	Z15	X16	Y16	Z16	X17	Y17	Z17	X18	Y18	Z18
254	4.21667	0.000	0.000	0.000	0.235	0.815	0.484	0.223	0.754	0.101	0.228	0.744	-0.061	0.177	0.889	0.025	0.486	0.838	0.480	0.496	0.758	0.103	0.481	0.739	-0.057	0.524	0.896	0.024	0.344	0.867	1.571	0.344	0.895	1.400	0.012	0.773	1.235	0.133	0.851	1.042	0.295	0.941	0.890	0.720	0.890	1.229	0.574	0.901	1.039	0.368	0.969	0.933	0.363	0.823	0.948
255	4.23333	0.000	0.000	0.000	0.237	0.811	0.484	0.223	0.753	0.100	0.228	0.744	-0.062	0.176	0.889	0.024	0.484	0.833	0.479	0.495	0.758	0.101	0.482	0.740	-0.058	0.524	0.896	0.024	0.346	0.864	1.571	0.346	0.892	1.400	0.014	0.771	1.234	0.133	0.850	1.042	0.295	0.942	0.890	0.721	0.886	1.229	0.575	0.900	1.038	0.368	0.966	0.934	0.363	0.822	0.948
256	4.25000	0.000	0.000	0.000	0.238	0.808	0.483	0.224	0.753	0.099	0.227	0.744	-0.063	0.177	0.888	0.024	0.482	0.830	0.478	0.495	0.757	0.100	0.482	0.741	-0.059	0.524	0.896	0.024	0.348	0.862	1.570	0.347	0.889	1.398	0.015	0.769	1.233	0.133	0.851	1.041	0.294	0.944	0.889	0.723	0.883	1.226	0.576	0.897	1.036	0.366	0.960	0.936	0.363	0.822	0.947
257	4.26667	0.000	0.000	0.000	0.239	0.804	0.482	0.225	0.752	0.098	0.226	0.743	-0.064	0.177	0.888	0.024	0.481	0.827	0.478	0.495	0.757	0.099	0.481	0.742	-0.061	0.524	0.897	0.024	0.350	0.859	1.569	0.349	0.887	1.396	0.016	0.768	1.231	0.133	0.851	1.039	0.292	0.948	0.888	0.723	0.882	1.222	0.576	0.895	1.032	0.363	0.957	0.937	0.363	0.821	0.947
258	4.28333	0.000	0.000	0.000	0.240	0.802	0.482	0.225	0.750	0.098	0.225	0.743	-0.064	0.177	0.887	0.025	0.480	0.823	0.478	0.496	0.757	0.098	0.480	0.743	-0.061	0.524	0.897	0.024	0.351	0.857	1.568	0.349	0.885	1.393	0.017	0.766	1.228	0.133	0.850	1.036	0.290	0.951	0.885	0.722	0.880	1.217	0.575	0.894	1.027	0.363	0.957	0.933	0.363	0.820	0.946
259	4.30000	0.000	0.000	0.000	0.240	0.800	0.482	0.225	0.750	0.098	0.225	0.744	-0.065	0.177	0.887	0.026	0.479	0.818	0.477	0.495	0.755	0.098	0.480	0.743	-0.062	0.524	0.896	0.024	0.352	0.856	1.566	0.350	0.884	1.391	0.017	0.766	1.226	0.133	0.849	1.033	0.288	0.948	0.879	0.722	0.878	1.213	0.575	0.894	1.022	0.364	0.957	0.925	0.363	0.819	0.946
260	4.31667	0.000	0.000	0.000	0.240	0.798	0.482	0.226	0.749	0.097	0.224	0.744	-0.065	0.176	0.887	0.027	0.477	0.815	0.477	0.495	0.754	0.097	0.480	0.743	-0.063	0.524	0.895	0.025	0.354	0.855	1.565	0.351	0.883	1.389	0.018	0.765	1.224	0.132	0.848	1.030	0.287	0.941	0.872	0.721	0.875	1.209	0.574	0.892	1.019	0.366	0.959	0.918	0.363	0.819	0.946
261	4.33333	0.000	0.000	0.000	0.239	0.796	0.482	0.226	0.749	0.097	0.224	0.745	-0.065	0.176	0.887	0.027	0.475	0.812	0.477	0.494	0.755	0.096	0.481	0.743	-0.064	0.524	0.896	0.025	0.356	0.854	1.564	0.352	0.881	1.387	0.018	0.764	1.222	0.131	0.848	1.027	0.286	0.937	0.866	0.721	0.870	1.205	0.574	0.889	1.015	0.367	0.960	0.914	0.363	0.818	0.945
262	4.35000	0.000	0.000	0.000	0.239	0.794	0.481	0.225	0.749	0.096	0.225	0.746	-0.066	0.177	0.888	0.027	0.474	0.810	0.476	0.494	0.755	0.095	0.481	0.745	-0.065	0.523	0.897	0.025	0.357	0.853	1.563	0.353	0.879	1.386	0.020	0.762	1.219	0.131	0.847	1.025	0.285	0.938	0.865	0.720	0.865	1.202	0.573	0.886	1.012	0.367	0.958	0.912	0.362	0.817	0.944
263	4.36667	0.000	0.000	0.000	0.239	0.792	0.480	0.225	0.749	0.095	0.226	0.748	-0.067	0.177	0.888	0.027	0.473	0.808	0.476	0.494	0.755	0.095	0.481	0.747	-0.066	0.523	0.898	0.025	0.358	0.852	1.563	0.354	0.876	1.386	0.021	0.760	1.217	0.132	0.846	1.022	0.286	0.942	0.865	0.720	0.861	1.200	0.573	0.883	1.010	0.364	0.952	0.911	0.362	0.817	0.944
264	4.38333	0.000	0.000	0.000	0.239	0.791	0.480	0.225	0.749	0.095	0.227	0.749	-0.068	0.177	0.888	0.027	0.472	0.805	0.475	0.494	0.754	0.094	0.482	0.746	-0.066	0.524	0.897	0.026	0.358	0.851	1.562	0.355	0.874	1.385	0.023	0.758	1.215	0.133	0.843	1.019	0.285	0.946	0.865	0.719	0.858	1.199	0.572	0.882	1.010	0.361	0.945	0.913	0.361	0.818	0.943
265	4.40000	0.000	0.000	0.000	0.238	0.791	0.480	0.224	0.749	0.094	0.227	0.749	-0.068	0.177	0.889	0.027	0.472	0.802	0.475	0.494	0.753	0.094	0.483	0.745	-0.067	0.524	0.896	0.026	0.358	0.849	1.562	0.355	0.872	1.384	0.023	0.757	1.213	0.134	0.841	1.018	0.285	0.948	0.865	0.720	0.857	1.198	0.571	0.883	1.010	0.358	0.940	0.915	0.361	0.818	0.942
266	4.41667	0.000	0.000	0.000	0.237	0.791	0.480	0.224	0.748	0.094	0.226	0.749	-0.068	0.177	0.888	0.027	0.470	0.799	0.476	0.494	0.752	0.094	0.483	0.745	-0.067	0.523	0.895	0.027	0.359	0.848	1.562	0.355	0.871	1.384	0.023	0.756	1.212	0.135	0.841	1.017	0.286	0.948	0.866	0.720	0.855	1.197	0.571	0.883	1.010	0.357	0.941	0.916	0.360	0.818	0.942
267	4.43333	0.000	0.000	0.000	0.237	0.790	0.480	0.225	0.748	0.095	0.226	0.749	-0.068	0.177	0.888	0.028	0.469	0.796	0.476	0.494	0.751	0.094	0.483	0.746	-0.067	0.523	0.896	0.028	0.359	0.847	1.562	0.356	0.869	1.383	0.023	0.755	1.213	0.134	0.840	1.018	0.288	0.946	0.867	0.720	0.853	1.196	0.571	0.882	1.010	0.360	0.948	0.915	0.360	0.818	0.942
268	4.45000	0.000	0.000	0.000	0.238	0.790	0.480	0.225	0.748	0.095	0.226	0.748	-0.067	0.176	0.888	0.028	0.469	0.794	0.476	0.493	0.751	0.094	0.484	0.746	-0.067	0.523	0.896	0.028	0.359	0.845	1.562	0.356	0.868	1.382	0.022	0.754	1.213	0.134	0.840	1.019	0.288	0.944	0.867	0.721	0.850	1.196	0.571	0.880	1.010	0.363	0.952	0.913	0.360	0.818	0.942
269	4.46667	0.000	0.000	0.000	0.238	0.791	0.480	0.225	0.748	0.095	0.226	0.747	-0.067	0.176	0.887	0.027	0.469	0.792	0.475	0.493	0.752	0.093	0.484	0.746	-0.068	0.523	0.896	0.026	0.359	0.844	1.562	0.356	0.866	1.381	0.022	0.752	1.213	0.133	0.841	1.019	0.287	0.944	0.866	0.721	0.848	1.196	0.572	0.878	1.009	0.363	0.949	0.913	0.360	0.818	0.942
270	4.48333	0.000	0.000	0.000	0.238	0.792	0.480	0.224	0.749	0.095	0.225	0.746	-0.067	0.177	0.888	0.026	0.470	0.789	0.475	0.493	0.752	0.092	0.484	0.745	-0.069	0.524	0.895	0.025	0.359	0.842	1.563	0.355	0.865	1.381	0.022	0.751	1.212	0.133	0.841	1.019	0.283	0.948	0.865	0.720	0.847	1.195	0.573	0.878	1.008	0.359	0.937	0.914	0.360	0.819	0.942
271	4.50000	0.000	0.000	0.000	0.238	0.792	0.480	0.224	0.749	0.095	0.225	0.746	-0.068	0.177	0.888	0.025	0.470	0.788	0.475	0.493	0.752	0.092	0.484	0.744	-0.069	0.524	0.895	0.024	0.360	0.841	1.564	0.355	0.863	1.381	0.022	0.751	1.211	0.134	0.841	1.018	0.282	0.951	0.865	0.719	0.846	1.195	0.573	0.878	1.007	0.356	0.927	0.915	0.360	0.819	0.941
272	4.51667	0.000	0.000	0.000	0.237	0.791	0.480	0.224	0.750	0.095	0.225	0.745	-0.067	0.176	0.888	0.024	0.470	0.789	0.475	0.494	0.752	0.092	0.483	0.744	-0.068	0.523	0.895	0.025	0.360	0.840	1.565	0.355	0.863	1.381	0.023	0.750	1.211	0.133	0.841	1.018	0.283	0.951	0.866	0.719	0.846	1.195	0.572	0.878	1.007	0.356	0.926	0.913	0.360	0.819	0.941
273	4.53333	0.000	0.000	0.000	0.238	0.789	0.481	0.224	0.750	0.095	0.225	0.745	-0.067	0.176	0.887	0.024	0.470	0.791	0.476	0.493	0.752	0.093	0.482	0.744	-0.067	0.523	0.895	0.025	0.360	0.840	1.565	0.355	0.862	1.382	0.024	0.750	1.210	0.133	0.843	1.018	0.285	0.951	0.867	0.719	0.846	1.195	0.572	0.877	1.007	0.359	0.931	0.908	0.360	0.818	0.942
274	4.55000	0.000	0.000	0.000	0.239	0.789	0.481	0.224	0.750	0.096	0.226	0.746	-0.067	0.177	0.888	0.024	0.469	0.792	0.476	0.493	0.751	0.094	0.482	0.744	-0.067	0.523	0.895	0.026	0.360	0.839	1.566	0.355	0.861	1.382	0.025	0.750	1.209	0.133	0.844	1.017	0.285	0.954	0.867	0.719	0.845	1.196	0.572	0.876	1.008	0.362	0.935	0.905	0.361	0.818	0.942
275	4.56667	0.000	0.000	0.000	0.240	0.788	0.481	0.224	0.750	0.095	0.227	0.747	-0.067	0.177	0.889	0.025	0.469	0.792	0.476	0.493	0.751	0.094	0.482	0.744	-0.067	0.523	0.894	0.026	0.361	0.838	1.566	0.355	0.860	1.383	0.025	0.750	1.208	0.134	0.844	1.017	0.284	0.956	0.867	0.719	0.845	1.197	0.572	0.875	1.009	0.363	0.939	0.907	0.361	0.817	0.943
276	4.58333	0.000	0.000	0.000	0.241	0.787	0.481	0.224	0.750	0.095	0.227	0.747	-0.067	0.177	0.889	0.025	0.469	0.791	0.476	0.493	0.752	0.094	0.482	0.744	-0.067	0.523	0.895	0.026	0.361	0.838	1.566	0.355	0.860	1.383	0.025	0.749	1.208	0.134	0.844	1.017	0.284	0.956	0.867	0.719	0.843	1.198	0.571	0.875	1.010	0.362	0.943	0.912	0.361	0.816	0.943
277	4.60000	0.000	0.000	0.000	0.242	0.786	0.481	0.224	0.749	0.095	0.227	0.747	-0.067	0.177	0.888	0.025	0.470	0.791	0.475	0.493	0.753	0.093	0.482	0.746	-0.068	0.523	0.896	0.026	0.360	0.838	1.566	0.356	0.860	1.383	0.025	0.748	1.208	0.134	0.843	1.017	0.285	0.956	0.868	0.719	0.842	1.198	0.570	0.876	1.011	0.361	0.944	0.914	0.361	0.816	0.942
278	4.61667	0.000	0.000	0.000	0.242	0.785	0.481	0.224	0.748	0.095	0.227	0.746	-0.067	0.177	0.887	0.025	0.470	0.790	0.475	0.493	0.753	0.093	0.482	0.747	-0.068	0.522	0.897	0.025	0.358	0.838	1.566	0.355	0.860	1.383	0.026	0.747	1.208	0.134	0.842	1.017	0.286	0.957	0.870	0.719	0.842	1.197	0.570	0.876	1.011	0.361	0.943	0.912	0.362	0.816	0.942
279	4.63333	0.000	0.000	0.000	0.241	0.784	0.481	0.224	0.749	0.095	0.226	0.746	-0.067	0.177	0.887	0.025	0.471	0.790	0.476	0.493	0.752	0.093	0.482	0.745	-0.068	0.522	0.896	0.025	0.357	0.837	1.566	0.355	0.860	1.383	0.026	0.746	1.208	0.135	0.842	1.017	0.287	0.957	0.872	0.719	0.843	1.197	0.571	0.876	1.011	0.361	0.940	0.910	0.362	0.816	0.942
280	4.65000	0.000	0.000	0.000	0.241	0.784	0.481	0.224	0.750	0.095	0.226	0.747	-0.067	0.177	0.888	0.025	0.471	0.791	0.476	0.494	0.751	0.093	0.483	0.744	-0.067	0.523	0.894	0.025	0.357	0.837	1.565	0.355	0.860	1.383	0.026	0.746	1.208	0.134	0.842	1.017	0.289	0.955	0.872	0.720	0.844	1.198	0.572	0.875	1.010	0.362	0.938	0.910	0.362	0.815	0.943
281	4.66667	0.000	0.000	0.000	0.242	0.783	0.481	0.224	0.750	0.095	0.226	0.748	-0.067	0.177	0.889	0.026	0.471	0.792	0.476	0.494	0.751	0.094	0.483	0.744	-0.067	0.523	0.895	0.026	0.357	0.837	1.565	0.355	0.860	1.382	0.026	0.746	1.208	0.134	0.843	1.016	0.291	0.953	0.872	0.721	0.845	1.199	0.573	0.874	1.010	0.363	0.935	0.909	0.362	0.815	0.943
282	4.68333	0.000	0.000	0.000	0.242	0.783	0.481	0.224	0.750	0.095	0.225	0.749	-0.067	0.177	0.890	0.028	0.472	0.794	0.476	0.494	0.752	0.094	0.482	0.746	-0.067	0.523	0.896	0.027	0.357	0.837	1.564	0.355	0.860	1.382	0.026	0.746	1.207	0.134	0.842	1.015	0.293	0.952	0.873	0.721	0.845	1.200	0.575	0.874	1.011	0.365	0.932	0.908	0.362	0.815	0.943
283	4.70000	0.000	0.000	0.000	0.243	0.782	0.481	0.225	0.749	0.095	0.225	0.749	-0.067	0.177	0.889	0.028	0.472	0.794	0.476	0.493	0.753	0.094	0.482	0.747	-0.067	0.523	0.897	0.027	0.356	0.837	1.564	0.355	0.860	1.382	0.026	0.746	1.206	0.135	0.841	1.014	0.293	0.951	0.872	0.721	0.845	1.200	0.575	0.876	1.010	0.365	0.933	0.908	0.362	0.815	0.943
284	4.71667	0.000	0.000	0.000	0.243	0.782	0.481	0.225	0.749	0.095	0.226	0.749	-0.067	0.177	0.889	0.028	0.472	0.794	0.476	0.493	0.754	0.094	0.482	0.748	-0.067	0.523	0.897	0.027	0.354	0.837	1.564	0.354	0.860	1.382	0.026	0.746	1.206	0.136	0.840	1.014	0.291	0.950	0.868	0.720	0.846	1.199	0.574	0.877	1.010	0.364	0.935	0.907	0.362	0.814	0.943
285	4.73333	0.000	0.000	0.000	0.242	0.782	0.481	0.225	0.749	0.095	0.227	0.749	-0.067	0.178	0.889	0.028	0.472	0.795	0.476	0.494	0.753	0.094	0.483	0.748	-0.067	0.524	0.897	0.028	0.353	0.838	1.563	0.354	0.860	1.383	0.026	0.745	1.206	0.136	0.840	1.015	0.289	0.949	0.865	0.720	0.847	1.198	0.574	0.878	1.009	0.363	0.933	0.907	0.363	0.814	0.943
